<?xml version="1.0" encoding="UTF-8" standalone="no"?>
<svg
        xmlns="http://www.w3.org/2000/svg" version="1.1"
        viewBox="0 0 4080 4088"
        width="1006.2"
        height="1006.2"
        fill="none"
        stroke="black"
        stroke-linecap="round"
        stroke-linejoin="round"
        stroke-width="13">
<g transform="translate(-63, 1496) scale(1 1) rotate(210 145 125)">
            
          </g>
<g transform="translate(2, 1608) scale(1 1) rotate(270 145 125)">
            
          </g>
<g transform="translate(-62, 1719) scale(1 1) rotate(330 145 125)">
            
          </g>
<g transform="translate(65, 1937) scale(1 1) rotate(150 145 125)">
            
          </g>
<g transform="translate(0, 2049) scale(1 1) rotate(90 145 125)">
            
          </g>
<g transform="translate(65, 2157) scale(1 1) rotate(30 145 125)">
            
          </g>
<g transform="translate(-63, 2372) scale(1 1) rotate(210 145 125)">
            <path d="M.037 249.12 144.037 0l.293.212L288.075 249.48l-.33.148L0 249.48" />
          </g>
<g transform="translate(2, 2484) scale(1 1) rotate(270 145 125)">
            
          </g>
<g transform="translate(-62, 2595) scale(1 1) rotate(330 145 125)">
            
          </g>
<g transform="translate(65, 2813) scale(1 1) rotate(150 145 125)">
            
          </g>
<g transform="translate(0, 2925) scale(1 1) rotate(90 145 125)">
            
          </g>
<g transform="translate(320, 1499) scale(1 1) rotate(150 145 125)">
            <path d="M.037 249.12 144.037 0l.293.212L288.075 249.48l-.33.148L0 249.48" />
          </g>
<g transform="translate(255, 1611) scale(1 1) rotate(90 145 125)">
            <path d="M.037 249.12 144.037 0l.293.212L288.075 249.48l-.33.148L0 249.48m78.472-45.355 65.565-37.805m.043-75.684-.043 75.684m65.523 37.879-65.523-37.879M91.666 90.603l104.828.067m39.302 68.153-52.472 90.751m-78.674-.04-52.356-90.818M99.99 76.203l88.2.067m55.915 96.962-44.159 76.35m-111.928-.057-44.043-76.418" />
          </g>
<g transform="translate(320, 1719) scale(1 1) rotate(30 145 125)">
            <path d="M.037 249.12 144.037 0l.293.212L288.075 249.48l-.33.148L0 249.48m78.472-45.355 65.565-37.805m.043-75.684-.043 75.684m65.523 37.879-65.523-37.879M91.666 90.603l104.828.067m39.302 68.153-52.472 90.751m-78.674-.04-52.356-90.818M99.99 76.203l88.2.067m55.915 96.962-44.159 76.35m-111.928-.057-44.043-76.418" />
          </g>
<g transform="translate(192, 1934) scale(1 1) rotate(210 145 125)">
            <path d="M.037 249.12 144.037 0l.293.212L288.075 249.48l-.33.148L0 249.48m78.472-45.355 65.565-37.805m.043-75.684-.043 75.684m65.523 37.879-65.523-37.879M91.666 90.603l104.828.067m39.302 68.153-52.472 90.751m-78.674-.04-52.356-90.818M99.99 76.203l88.2.067m55.915 96.962-44.159 76.35m-111.928-.057-44.043-76.418" />
          </g>
<g transform="translate(257, 2046) scale(1 1) rotate(270 145 125)">
            <path d="M.037 249.12 144.037 0l.293.212L288.075 249.48l-.33.148L0 249.48m78.472-45.355 65.565-37.805m.043-75.684-.043 75.684m65.523 37.879-65.523-37.879M91.666 90.603l104.828.067m39.302 68.153-52.472 90.751m-78.674-.04-52.356-90.818M99.99 76.203l88.2.067m55.915 96.962-44.159 76.35m-111.928-.057-44.043-76.418" />
          </g>
<g transform="translate(193, 2157) scale(1 1) rotate(330 145 125)">
            <path d="M.037 249.12 144.037 0l.293.212L288.075 249.48l-.33.148L0 249.48m78.472-45.355 65.565-37.805m.043-75.684-.043 75.684m65.523 37.879-65.523-37.879M91.666 90.603l104.828.067m39.302 68.153-52.472 90.751m-78.674-.04-52.356-90.818M99.99 76.203l88.2.067m55.915 96.962-44.159 76.35m-111.928-.057-44.043-76.418" />
          </g>
<g transform="translate(320, 2375) scale(1 1) rotate(150 145 125)">
            <g ><path d="M.037 249.12 144.037 0l.293.212L288.075 249.48l-.33.148L0 249.48"/><path d="M162.874 177.196H125.2l-52.811 30.49m52.811-30.49 18.837-32.627V83.587m0 60.982 18.837 32.627 52.812 30.49"/><path d="m28.367 200.384 56.262.102-28.676 49.023M172.372 49.114l-28.22 48.673-28.116-49.345m115.337 201.02-28.042-48.776 56.792.323"/><path d="m24.047 207.584 48.342.102-24.02 41.819M168.297 41.773l-24.26 41.814-24.205-41.711m119.936 207.727-24.082-41.917 48.226-.107"/></g>
          </g>
<g transform="translate(255, 2487) scale(1 1) rotate(90 145 125)">
            <path d="M.037 249.12 144.037 0l.293.212L288.075 249.48l-.33.148L0 249.48" />
          </g>
<g transform="translate(320, 2595) scale(1 1) rotate(30 145 125)">
            <path d="M.037 249.12 144.037 0l.293.212L288.075 249.48l-.33.148L0 249.48" />
          </g>
<g transform="translate(192, 2810) scale(1 1) rotate(210 145 125)">
            
          </g>
<g transform="translate(257, 2922) scale(1 1) rotate(270 145 125)">
            
          </g>
<g transform="translate(447, 1496) scale(1 1) rotate(210 145 125)">
            <path d="M.037 249.12 144.037 0l.293.212L288.075 249.48l-.33.148L0 249.48" />
          </g>
<g transform="translate(512, 1608) scale(1 1) rotate(270 145 125)">
            <g ><path d="M.037 249.12 144.037 0l.293.212L288.075 249.48l-.33.148L0 249.48"/><path d="M162.874 177.196H125.2l-52.811 30.49m52.811-30.49 18.837-32.627V83.587m0 60.982 18.837 32.627 52.812 30.49"/><path d="m28.367 200.384 56.262.102-28.676 49.023M172.372 49.114l-28.22 48.673-28.116-49.345m115.337 201.02-28.042-48.776 56.792.323"/><path d="m24.047 207.584 48.342.102-24.02 41.819M168.297 41.773l-24.26 41.814-24.205-41.711m119.936 207.727-24.082-41.917 48.226-.107"/></g>
          </g>
<g transform="translate(448, 1719) scale(1 1) rotate(330 145 125)">
            <path d="M.037 249.12 144.037 0l.293.212L288.075 249.48l-.33.148L0 249.48" />
          </g>
<g transform="translate(575, 1937) scale(1 1) rotate(150 145 125)">
            <g ><path d="M.037 249.12 144.037 0l.293.212L288.075 249.48l-.33.148L0 249.48"/><path d="M162.874 177.196H125.2l-52.811 30.49m52.811-30.49 18.837-32.627V83.587m0 60.982 18.837 32.627 52.812 30.49"/><path d="m28.367 200.384 56.262.102-28.676 49.023M172.372 49.114l-28.22 48.673-28.116-49.345m115.337 201.02-28.042-48.776 56.792.323"/><path d="m24.047 207.584 48.342.102-24.02 41.819M168.297 41.773l-24.26 41.814-24.205-41.711m119.936 207.727-24.082-41.917 48.226-.107"/></g>
          </g>
<g transform="translate(510, 2049) scale(1 1) rotate(90 145 125)">
            <path d="M.037 249.12 144.037 0l.293.212L288.075 249.48l-.33.148L0 249.48" />
          </g>
<g transform="translate(575, 2157) scale(1 1) rotate(30 145 125)">
            
          </g>
<g transform="translate(447, 2372) scale(1 1) rotate(210 145 125)">
            
          </g>
<g transform="translate(512, 2484) scale(1 1) rotate(270 145 125)">
            <path d="M.037 249.12 144.037 0l.293.212L288.075 249.48l-.33.148L0 249.48" />
          </g>
<g transform="translate(448, 2595) scale(1 1) rotate(330 145 125)">
            <path d="M.037 249.12 144.037 0l.293.212L288.075 249.48l-.33.148L0 249.48" />
          </g>
<g transform="translate(575, 2813) scale(1 1) rotate(150 145 125)">
            <path d="M.037 249.12 144.037 0l.293.212L288.075 249.48l-.33.148L0 249.48" />
          </g>
<g transform="translate(510, 2925) scale(1 1) rotate(90 145 125)">
            
          </g>
<g transform="translate(830, 1499) scale(1 1) rotate(150 145 125)">
            
          </g>
<g transform="translate(765, 1611) scale(1 1) rotate(90 145 125)">
            <path d="M.037 249.12 144.037 0l.293.212L288.075 249.48l-.33.148L0 249.48" />
          </g>
<g transform="translate(830, 1719) scale(1 1) rotate(30 145 125)">
            <g ><path d="M.037 249.12 144.037 0l.293.212L288.075 249.48l-.33.148L0 249.48"/><path d="M143.872 249.554 72.39 207.686l-.352-83.126"/><path d="m72.037 124.56 72-40.973 72.166 41.26"/><path d="m216.203 124.846-.517 82.84-71.814 41.868M0 249.48l72.389-41.794M144.037 0v83.587M288.075 249.48l-72.389-41.794"/></g>
          </g>
<g transform="translate(702, 1934) scale(1 1) rotate(210 145 125)">
            
          </g>
<g transform="translate(703, 2157) scale(1 1) rotate(330 145 125)">
            
          </g>
<g transform="translate(830, 2375) scale(1 1) rotate(150 145 125)">
            
          </g>
<g transform="translate(765, 2487) scale(1 1) rotate(90 145 125)">
            <g ><path d="M.037 249.12 144.037 0l.293.212L288.075 249.48l-.33.148L0 249.48"/><path d="M143.872 249.554 72.39 207.686l-.352-83.126"/><path d="m72.037 124.56 72-40.973 72.166 41.26"/><path d="m216.203 124.846-.517 82.84-71.814 41.868M0 249.48l72.389-41.794M144.037 0v83.587M288.075 249.48l-72.389-41.794"/></g>
          </g>
<g transform="translate(830, 2595) scale(1 1) rotate(30 145 125)">
            <path d="M.037 249.12 144.037 0l.293.212L288.075 249.48l-.33.148L0 249.48" />
          </g>
<g transform="translate(702, 2810) scale(1 1) rotate(210 145 125)">
            
          </g>
<g transform="translate(767, 2922) scale(1 1) rotate(270 145 125)">
            
          </g>
<g transform="translate(957, 1496) scale(1 1) rotate(210 145 125)">
            
          </g>
<g transform="translate(1022, 1608) scale(1 1) rotate(270 145 125)">
            <path d="M.037 249.12 144.037 0l.293.212L288.075 249.48l-.33.148L0 249.48m78.472-45.355 65.565-37.805m.043-75.684-.043 75.684m65.523 37.879-65.523-37.879M91.666 90.603l104.828.067m39.302 68.153-52.472 90.751m-78.674-.04-52.356-90.818M99.99 76.203l88.2.067m55.915 96.962-44.159 76.35m-111.928-.057-44.043-76.418" />
          </g>
<g transform="translate(958, 1719) scale(1 1) rotate(330 145 125)">
            <g ><path d="M.037 249.12 144.037 0l.293.212L288.075 249.48l-.33.148L0 249.48"/><path d="M162.874 177.196H125.2l-52.811 30.49m52.811-30.49 18.837-32.627V83.587m0 60.982 18.837 32.627 52.812 30.49"/><path d="m28.367 200.384 56.262.102-28.676 49.023M172.372 49.114l-28.22 48.673-28.116-49.345m115.337 201.02-28.042-48.776 56.792.323"/><path d="m24.047 207.584 48.342.102-24.02 41.819M168.297 41.773l-24.26 41.814-24.205-41.711m119.936 207.727-24.082-41.917 48.226-.107"/></g>
          </g>
<g transform="translate(1085, 1937) scale(1 1) rotate(150 145 125)">
            <g ><path d="M.037 249.12 144.037 0l.293.212L288.075 249.48l-.33.148L0 249.48"/><path d="M162.874 177.196H125.2l-52.811 30.49m52.811-30.49 18.837-32.627V83.587m0 60.982 18.837 32.627 52.812 30.49"/><path d="m28.367 200.384 56.262.102-28.676 49.023M172.372 49.114l-28.22 48.673-28.116-49.345m115.337 201.02-28.042-48.776 56.792.323"/><path d="m24.047 207.584 48.342.102-24.02 41.819M168.297 41.773l-24.26 41.814-24.205-41.711m119.936 207.727-24.082-41.917 48.226-.107"/></g>
          </g>
<g transform="translate(1020, 2049) scale(1 1) rotate(90 145 125)">
            <g ><path d="M.037 249.12 144.037 0l.293.212L288.075 249.48l-.33.148L0 249.48"/><path d="M162.874 177.196H125.2l-52.811 30.49m52.811-30.49 18.837-32.627V83.587m0 60.982 18.837 32.627 52.812 30.49"/><path d="m28.367 200.384 56.262.102-28.676 49.023M172.372 49.114l-28.22 48.673-28.116-49.345m115.337 201.02-28.042-48.776 56.792.323"/><path d="m24.047 207.584 48.342.102-24.02 41.819M168.297 41.773l-24.26 41.814-24.205-41.711m119.936 207.727-24.082-41.917 48.226-.107"/></g>
          </g>
<g transform="translate(1085, 2157) scale(1 1) rotate(30 145 125)">
            <g ><path d="M.037 249.12 144.037 0l.293.212L288.075 249.48l-.33.148L0 249.48"/><path d="M162.874 177.196H125.2l-52.811 30.49m52.811-30.49 18.837-32.627V83.587m0 60.982 18.837 32.627 52.812 30.49"/><path d="m28.367 200.384 56.262.102-28.676 49.023M172.372 49.114l-28.22 48.673-28.116-49.345m115.337 201.02-28.042-48.776 56.792.323"/><path d="m24.047 207.584 48.342.102-24.02 41.819M168.297 41.773l-24.26 41.814-24.205-41.711m119.936 207.727-24.082-41.917 48.226-.107"/></g>
          </g>
<g transform="translate(957, 2372) scale(1 1) rotate(210 145 125)">
            <g ><path d="M.037 249.12 144.037 0l.293.212L288.075 249.48l-.33.148L0 249.48"/><path d="M162.874 177.196H125.2l-52.811 30.49m52.811-30.49 18.837-32.627V83.587m0 60.982 18.837 32.627 52.812 30.49"/><path d="m28.367 200.384 56.262.102-28.676 49.023M172.372 49.114l-28.22 48.673-28.116-49.345m115.337 201.02-28.042-48.776 56.792.323"/><path d="m24.047 207.584 48.342.102-24.02 41.819M168.297 41.773l-24.26 41.814-24.205-41.711m119.936 207.727-24.082-41.917 48.226-.107"/></g>
          </g>
<g transform="translate(1022, 2484) scale(1 1) rotate(270 145 125)">
            <g ><path d="M.037 249.12 144.037 0l.293.212L288.075 249.48l-.33.148L0 249.48"/><path d="M143.872 249.554 72.39 207.686l-.352-83.126"/><path d="m72.037 124.56 72-40.973 72.166 41.26"/><path d="m216.203 124.846-.517 82.84-71.814 41.868M0 249.48l72.389-41.794M144.037 0v83.587M288.075 249.48l-72.389-41.794"/></g>
          </g>
<g transform="translate(958, 2595) scale(1 1) rotate(330 145 125)">
            <path d="M.037 249.12 144.037 0l.293.212L288.075 249.48l-.33.148L0 249.48" />
          </g>
<g transform="translate(1085, 2813) scale(1 1) rotate(150 145 125)">
            <path d="M.037 249.12 144.037 0l.293.212L288.075 249.48l-.33.148L0 249.48" />
          </g>
<g transform="translate(1020, 2925) scale(1 1) rotate(90 145 125)">
            
          </g>
<g transform="translate(1340, 1499) scale(1 1) rotate(150 145 125)">
            
          </g>
<g transform="translate(1275, 1611) scale(1 1) rotate(90 145 125)">
            <g ><path d="M.037 249.12 144.037 0l.293.212L288.075 249.48l-.33.148L0 249.48"/><path d="M143.872 249.554 72.39 207.686l-.352-83.126"/><path d="m72.037 124.56 72-40.973 72.166 41.26"/><path d="m216.203 124.846-.517 82.84-71.814 41.868M0 249.48l72.389-41.794M144.037 0v83.587M288.075 249.48l-72.389-41.794"/></g>
          </g>
<g transform="translate(1340, 1719) scale(1 1) rotate(30 145 125)">
            
          </g>
<g transform="translate(1212, 1934) scale(1 1) rotate(210 145 125)">
            <g ><path d="M.037 249.12 144.037 0l.293.212L288.075 249.48l-.33.148L0 249.48"/><path d="M162.874 177.196H125.2l-52.811 30.49m52.811-30.49 18.837-32.627V83.587m0 60.982 18.837 32.627 52.812 30.49"/><path d="m28.367 200.384 56.262.102-28.676 49.023M172.372 49.114l-28.22 48.673-28.116-49.345m115.337 201.02-28.042-48.776 56.792.323"/><path d="m24.047 207.584 48.342.102-24.02 41.819M168.297 41.773l-24.26 41.814-24.205-41.711m119.936 207.727-24.082-41.917 48.226-.107"/></g>
          </g>
<g transform="translate(1277, 2046) scale(1 1) rotate(270 145 125)">
            <g ><path d="M.037 249.12 144.037 0l.293.212L288.075 249.48l-.33.148L0 249.48"/><path d="M144.037 0C144.523 118.69 92.978 199.664 0 249.48"/><path d="M288.075 249.48C185.043 190.555 140.69 105.43 144.037 0"/><path d="M0 249.48c102.546-59.766 198.444-55.614 288.075 0"/><path d="M144.037 0C118.114 104.604 69.585 187.263 0 249.48m288.075 0C210.447 174.728 163.127 91.371 144.037 0M0 249.48c103.551-29.852 199.4-29.154 288.075 0"/></g>
          </g>
<g transform="translate(1213, 2157) scale(1 1) rotate(330 145 125)">
            <path d="M.037 249.12 144.037 0l.293.212L288.075 249.48l-.33.148L0 249.48" />
          </g>
<g transform="translate(1340, 2375) scale(1 1) rotate(150 145 125)">
            <path d="M.037 249.12 144.037 0l.293.212L288.075 249.48l-.33.148L0 249.48" />
          </g>
<g transform="translate(1275, 2487) scale(1 1) rotate(90 145 125)">
            <path d="M.037 249.12 144.037 0l.293.212L288.075 249.48l-.33.148L0 249.48" />
          </g>
<g transform="translate(1340, 2595) scale(1 1) rotate(30 145 125)">
            <path d="M.037 249.12 144.037 0l.293.212L288.075 249.48l-.33.148L0 249.48" />
          </g>
<g transform="translate(1212, 2810) scale(1 1) rotate(210 145 125)">
            
          </g>
<g transform="translate(1277, 2922) scale(1 1) rotate(270 145 125)">
            
          </g>
<g transform="translate(1467, 1496) scale(1 1) rotate(210 145 125)">
            
          </g>
<g transform="translate(1532, 1608) scale(1 1) rotate(270 145 125)">
            <path d="M.037 249.12 144.037 0l.293.212L288.075 249.48l-.33.148L0 249.48m78.472-45.355 65.565-37.805m.043-75.684-.043 75.684m65.523 37.879-65.523-37.879M91.666 90.603l104.828.067m39.302 68.153-52.472 90.751m-78.674-.04-52.356-90.818M99.99 76.203l88.2.067m55.915 96.962-44.159 76.35m-111.928-.057-44.043-76.418" />
          </g>
<g transform="translate(1468, 1719) scale(1 1) rotate(330 145 125)">
            <path d="M.037 249.12 144.037 0l.293.212L288.075 249.48l-.33.148L0 249.48m169.162-100.29L144.33.213m1.98 196.43 141.434 52.985M116.64 153.126.038 249.12m116.602-95.994L144.33.212m24.832 148.978 118.582 100.438M146.31 196.643.036 249.12m191.648-114.99L144.33.212m3.761 223.466 139.653 25.95M92.337 141.152.037 249.12m92.3-107.968L144.33.212m47.354 133.918 96.06 115.498m-139.653-25.95L.037 249.12m144-82.8L144.33.212m-.293 166.108 143.707 83.308M144.037 166.32l-144 82.8" />
          </g>
<g transform="translate(1595, 1937) scale(1 1) rotate(150 145 125)">
            <path d="M.037 249.12 144.037 0l.293.212L288.075 249.48l-.33.148L0 249.48m78.472-45.355 65.565-37.805m.043-75.684-.043 75.684m65.523 37.879-65.523-37.879M91.666 90.603l104.828.067m39.302 68.153-52.472 90.751m-78.674-.04-52.356-90.818M99.99 76.203l88.2.067m55.915 96.962-44.159 76.35m-111.928-.057-44.043-76.418" />
          </g>
<g transform="translate(1530, 2049) scale(1 1) rotate(90 145 125)">
            <path d="M.037 249.12 144.037 0l.293.212L288.075 249.48l-.33.148L0 249.48m78.472-45.355 65.565-37.805m.043-75.684-.043 75.684m65.523 37.879-65.523-37.879M91.666 90.603l104.828.067m39.302 68.153-52.472 90.751m-78.674-.04-52.356-90.818M99.99 76.203l88.2.067m55.915 96.962-44.159 76.35m-111.928-.057-44.043-76.418" />
          </g>
<g transform="translate(1595, 2157) scale(1 1) rotate(30 145 125)">
            <path d="M.037 249.12 144.037 0l.293.212L288.075 249.48l-.33.148L0 249.48m169.162-100.29L144.33.213m1.98 196.43 141.434 52.985M116.64 153.126.038 249.12m116.602-95.994L144.33.212m24.832 148.978 118.582 100.438M146.31 196.643.036 249.12m191.648-114.99L144.33.212m3.761 223.466 139.653 25.95M92.337 141.152.037 249.12m92.3-107.968L144.33.212m47.354 133.918 96.06 115.498m-139.653-25.95L.037 249.12m144-82.8L144.33.212m-.293 166.108 143.707 83.308M144.037 166.32l-144 82.8" />
          </g>
<g transform="translate(1467, 2372) scale(1 1) rotate(210 145 125)">
            <g ><path d="M.037 249.12 144.037 0l.293.212L288.075 249.48l-.33.148L0 249.48"/><path d="M162.874 177.196H125.2l-52.811 30.49m52.811-30.49 18.837-32.627V83.587m0 60.982 18.837 32.627 52.812 30.49"/><path d="m28.367 200.384 56.262.102-28.676 49.023M172.372 49.114l-28.22 48.673-28.116-49.345m115.337 201.02-28.042-48.776 56.792.323"/><path d="m24.047 207.584 48.342.102-24.02 41.819M168.297 41.773l-24.26 41.814-24.205-41.711m119.936 207.727-24.082-41.917 48.226-.107"/></g>
          </g>
<g transform="translate(1532, 2484) scale(1 1) rotate(270 145 125)">
            <path d="M.037 249.12 144.037 0l.293.212L288.075 249.48l-.33.148L0 249.48" />
          </g>
<g transform="translate(1468, 2595) scale(1 1) rotate(330 145 125)">
            
          </g>
<g transform="translate(1595, 2813) scale(1 1) rotate(150 145 125)">
            <path d="M.037 249.12 144.037 0l.293.212L288.075 249.48l-.33.148L0 249.48" />
          </g>
<g transform="translate(1530, 2925) scale(1 1) rotate(90 145 125)">
            
          </g>
<g transform="translate(1850, 1499) scale(1 1) rotate(150 145 125)">
            
          </g>
<g transform="translate(1785, 1611) scale(1 1) rotate(90 145 125)">
            
          </g>
<g transform="translate(1723, 2157) scale(1 1) rotate(330 145 125)">
            
          </g>
<g transform="translate(1850, 2375) scale(1 1) rotate(150 145 125)">
            <path d="M.037 249.12 144.037 0l.293.212L288.075 249.48l-.33.148L0 249.48" />
          </g>
<g transform="translate(1785, 2487) scale(1 1) rotate(90 145 125)">
            <path d="M.037 249.12 144.037 0l.293.212L288.075 249.48l-.33.148L0 249.48" />
          </g>
<g transform="translate(1850, 2595) scale(1 1) rotate(30 145 125)">
            
          </g>
<g transform="translate(1722, 2810) scale(1 1) rotate(210 145 125)">
            
          </g>
<g transform="translate(1787, 2922) scale(1 1) rotate(270 145 125)">
            
          </g>
<g transform="translate(1977, 1496) scale(1 1) rotate(210 145 125)">
            <path d="M.037 249.12 144.037 0l.293.212L288.075 249.48l-.33.148L0 249.48" />
          </g>
<g transform="translate(2042, 1608) scale(1 1) rotate(270 145 125)">
            <g ><path d="M.037 249.12 144.037 0l.293.212L288.075 249.48l-.33.148L0 249.48"/><path d="M162.874 177.196H125.2l-52.811 30.49m52.811-30.49 18.837-32.627V83.587m0 60.982 18.837 32.627 52.812 30.49"/><path d="m28.367 200.384 56.262.102-28.676 49.023M172.372 49.114l-28.22 48.673-28.116-49.345m115.337 201.02-28.042-48.776 56.792.323"/><path d="m24.047 207.584 48.342.102-24.02 41.819M168.297 41.773l-24.26 41.814-24.205-41.711m119.936 207.727-24.082-41.917 48.226-.107"/></g>
          </g>
<g transform="translate(1978, 1719) scale(1 1) rotate(330 145 125)">
            <g ><path d="M.037 249.12 144.037 0l.293.212L288.075 249.48l-.33.148L0 249.48"/><path d="M143.872 249.554 72.39 207.686l-.352-83.126"/><path d="m72.037 124.56 72-40.973 72.166 41.26"/><path d="m216.203 124.846-.517 82.84-71.814 41.868M0 249.48l72.389-41.794M144.037 0v83.587M288.075 249.48l-72.389-41.794"/></g>
          </g>
<g transform="translate(2105, 1937) scale(1 1) rotate(150 145 125)">
            <g ><path d="M.037 249.12 144.037 0l.293.212L288.075 249.48l-.33.148L0 249.48"/><path d="M143.872 249.554 72.39 207.686l-.352-83.126"/><path d="m72.037 124.56 72-40.973 72.166 41.26"/><path d="m216.203 124.846-.517 82.84-71.814 41.868M0 249.48l72.389-41.794M144.037 0v83.587M288.075 249.48l-72.389-41.794"/></g>
          </g>
<g transform="translate(2040, 2049) scale(1 1) rotate(90 145 125)">
            <g ><path d="M.037 249.12 144.037 0l.293.212L288.075 249.48l-.33.148L0 249.48"/><path d="M143.872 249.554 72.39 207.686l-.352-83.126"/><path d="m72.037 124.56 72-40.973 72.166 41.26"/><path d="m216.203 124.846-.517 82.84-71.814 41.868M0 249.48l72.389-41.794M144.037 0v83.587M288.075 249.48l-72.389-41.794"/></g>
          </g>
<g transform="translate(2105, 2157) scale(1 1) rotate(30 145 125)">
            <g ><path d="M.037 249.12 144.037 0l.293.212L288.075 249.48l-.33.148L0 249.48"/><path d="M162.874 177.196H125.2l-52.811 30.49m52.811-30.49 18.837-32.627V83.587m0 60.982 18.837 32.627 52.812 30.49"/><path d="m28.367 200.384 56.262.102-28.676 49.023M172.372 49.114l-28.22 48.673-28.116-49.345m115.337 201.02-28.042-48.776 56.792.323"/><path d="m24.047 207.584 48.342.102-24.02 41.819M168.297 41.773l-24.26 41.814-24.205-41.711m119.936 207.727-24.082-41.917 48.226-.107"/></g>
          </g>
<g transform="translate(1977, 2372) scale(1 1) rotate(210 145 125)">
            <g ><path d="M.037 249.12 144.037 0l.293.212L288.075 249.48l-.33.148L0 249.48"/><path d="M162.874 177.196H125.2l-52.811 30.49m52.811-30.49 18.837-32.627V83.587m0 60.982 18.837 32.627 52.812 30.49"/><path d="m28.367 200.384 56.262.102-28.676 49.023M172.372 49.114l-28.22 48.673-28.116-49.345m115.337 201.02-28.042-48.776 56.792.323"/><path d="m24.047 207.584 48.342.102-24.02 41.819M168.297 41.773l-24.26 41.814-24.205-41.711m119.936 207.727-24.082-41.917 48.226-.107"/></g>
          </g>
<g transform="translate(2042, 2484) scale(1 1) rotate(270 145 125)">
            <g ><path d="M.037 249.12 144.037 0l.293.212L288.075 249.48l-.33.148L0 249.48"/><path d="M143.872 249.554 72.39 207.686l-.352-83.126"/><path d="m72.037 124.56 72-40.973 72.166 41.26"/><path d="m216.203 124.846-.517 82.84-71.814 41.868M0 249.48l72.389-41.794M144.037 0v83.587M288.075 249.48l-72.389-41.794"/></g>
          </g>
<g transform="translate(1978, 2595) scale(1 1) rotate(330 145 125)">
            <path d="M.037 249.12 144.037 0l.293.212L288.075 249.48l-.33.148L0 249.48" />
          </g>
<g transform="translate(2105, 2813) scale(1 1) rotate(150 145 125)">
            <path d="M.037 249.12 144.037 0l.293.212L288.075 249.48l-.33.148L0 249.48" />
          </g>
<g transform="translate(2040, 2925) scale(1 1) rotate(90 145 125)">
            
          </g>
<g transform="translate(2360, 1499) scale(1 1) rotate(150 145 125)">
            <path d="M.037 249.12 144.037 0l.293.212L288.075 249.48l-.33.148L0 249.48" />
          </g>
<g transform="translate(2295, 1611) scale(1 1) rotate(90 145 125)">
            <path d="M.037 249.12 144.037 0l.293.212L288.075 249.48l-.33.148L0 249.48" />
          </g>
<g transform="translate(2360, 1719) scale(1 1) rotate(30 145 125)">
            
          </g>
<g transform="translate(2232, 1934) scale(1 1) rotate(210 145 125)">
            <g ><path d="M.037 249.12 144.037 0l.293.212L288.075 249.48l-.33.148L0 249.48"/><path d="M143.872 249.554 72.39 207.686l-.352-83.126"/><path d="m72.037 124.56 72-40.973 72.166 41.26"/><path d="m216.203 124.846-.517 82.84-71.814 41.868M0 249.48l72.389-41.794M144.037 0v83.587M288.075 249.48l-72.389-41.794"/></g>
          </g>
<g transform="translate(2297, 2046) scale(1 1) rotate(270 145 125)">
            <path d="M.037 249.12 144.037 0l.293.212L288.075 249.48l-.33.148L0 249.48" />
          </g>
<g transform="translate(2233, 2157) scale(1 1) rotate(330 145 125)">
            
          </g>
<g transform="translate(2360, 2375) scale(1 1) rotate(150 145 125)">
            <g ><path d="M.037 249.12 144.037 0l.293.212L288.075 249.48l-.33.148L0 249.48"/><path d="M143.872 249.554 72.39 207.686l-.352-83.126"/><path d="m72.037 124.56 72-40.973 72.166 41.26"/><path d="m216.203 124.846-.517 82.84-71.814 41.868M0 249.48l72.389-41.794M144.037 0v83.587M288.075 249.48l-72.389-41.794"/></g>
          </g>
<g transform="translate(2295, 2487) scale(1 1) rotate(90 145 125)">
            <path d="M.037 249.12 144.037 0l.293.212L288.075 249.48l-.33.148L0 249.48" />
          </g>
<g transform="translate(2360, 2595) scale(1 1) rotate(30 145 125)">
            <path d="M.037 249.12 144.037 0l.293.212L288.075 249.48l-.33.148L0 249.48" />
          </g>
<g transform="translate(2232, 2810) scale(1 1) rotate(210 145 125)">
            <path d="M.037 249.12 144.037 0l.293.212L288.075 249.48l-.33.148L0 249.48" />
          </g>
<g transform="translate(2297, 2922) scale(1 1) rotate(270 145 125)">
            
          </g>
<g transform="translate(2487, 1496) scale(1 1) rotate(210 145 125)">
            <path d="M.037 249.12 144.037 0l.293.212L288.075 249.48l-.33.148L0 249.48" />
          </g>
<g transform="translate(2552, 1608) scale(1 1) rotate(270 145 125)">
            <g ><path d="M.037 249.12 144.037 0l.293.212L288.075 249.48l-.33.148L0 249.48"/><path d="M162.874 177.196H125.2l-52.811 30.49m52.811-30.49 18.837-32.627V83.587m0 60.982 18.837 32.627 52.812 30.49"/><path d="m28.367 200.384 56.262.102-28.676 49.023M172.372 49.114l-28.22 48.673-28.116-49.345m115.337 201.02-28.042-48.776 56.792.323"/><path d="m24.047 207.584 48.342.102-24.02 41.819M168.297 41.773l-24.26 41.814-24.205-41.711m119.936 207.727-24.082-41.917 48.226-.107"/></g>
          </g>
<g transform="translate(2488, 1719) scale(1 1) rotate(330 145 125)">
            <path d="M.037 249.12 144.037 0l.293.212L288.075 249.48l-.33.148L0 249.48" />
          </g>
<g transform="translate(2615, 1937) scale(1 1) rotate(150 145 125)">
            <g ><path d="M.037 249.12 144.037 0l.293.212L288.075 249.48l-.33.148L0 249.48"/><path d="M162.874 177.196H125.2l-52.811 30.49m52.811-30.49 18.837-32.627V83.587m0 60.982 18.837 32.627 52.812 30.49"/><path d="m28.367 200.384 56.262.102-28.676 49.023M172.372 49.114l-28.22 48.673-28.116-49.345m115.337 201.02-28.042-48.776 56.792.323"/><path d="m24.047 207.584 48.342.102-24.02 41.819M168.297 41.773l-24.26 41.814-24.205-41.711m119.936 207.727-24.082-41.917 48.226-.107"/></g>
          </g>
<g transform="translate(2550, 2049) scale(1 1) rotate(90 145 125)">
            <g ><path d="M.037 249.12 144.037 0l.293.212L288.075 249.48l-.33.148L0 249.48"/><path d="M143.872 249.554 72.39 207.686l-.352-83.126"/><path d="m72.037 124.56 72-40.973 72.166 41.26"/><path d="m216.203 124.846-.517 82.84-71.814 41.868M0 249.48l72.389-41.794M144.037 0v83.587M288.075 249.48l-72.389-41.794"/></g>
          </g>
<g transform="translate(2615, 2157) scale(1 1) rotate(30 145 125)">
            <path d="M.037 249.12 144.037 0l.293.212L288.075 249.48l-.33.148L0 249.48" />
          </g>
<g transform="translate(2487, 2372) scale(1 1) rotate(210 145 125)">
            <g ><path d="M.037 249.12 144.037 0l.293.212L288.075 249.48l-.33.148L0 249.48"/><path d="M143.872 249.554 72.39 207.686l-.352-83.126"/><path d="m72.037 124.56 72-40.973 72.166 41.26"/><path d="m216.203 124.846-.517 82.84-71.814 41.868M0 249.48l72.389-41.794M144.037 0v83.587M288.075 249.48l-72.389-41.794"/></g>
          </g>
<g transform="translate(2552, 2484) scale(1 1) rotate(270 145 125)">
            <path d="M.037 249.12 144.037 0l.293.212L288.075 249.48l-.33.148L0 249.48" />
          </g>
<g transform="translate(2488, 2595) scale(1 1) rotate(330 145 125)">
            <path d="M.037 249.12 144.037 0l.293.212L288.075 249.48l-.33.148L0 249.48" />
          </g>
<g transform="translate(2615, 2813) scale(1 1) rotate(150 145 125)">
            
          </g>
<g transform="translate(2550, 2925) scale(1 1) rotate(90 145 125)">
            
          </g>
<g transform="translate(2807, 1170) scale(1 1) rotate(270 145 125)">
            
          </g>
<g transform="translate(2743, 1281) scale(1 1) rotate(330 145 125)">
            <g ><path d="M.037 249.12 144.037 0l.293.212L288.075 249.48l-.33.148L0 249.48"/><path d="M143.872 249.554 72.39 207.686l-.352-83.126"/><path d="m72.037 124.56 72-40.973 72.166 41.26"/><path d="m216.203 124.846-.517 82.84-71.814 41.868M0 249.48l72.389-41.794M144.037 0v83.587M288.075 249.48l-72.389-41.794"/></g>
          </g>
<g transform="translate(2870, 1499) scale(1 1) rotate(150 145 125)">
            <g ><path d="M.037 249.12 144.037 0l.293.212L288.075 249.48l-.33.148L0 249.48"/><path d="M162.874 177.196H125.2l-52.811 30.49m52.811-30.49 18.837-32.627V83.587m0 60.982 18.837 32.627 52.812 30.49"/><path d="m28.367 200.384 56.262.102-28.676 49.023M172.372 49.114l-28.22 48.673-28.116-49.345m115.337 201.02-28.042-48.776 56.792.323"/><path d="m24.047 207.584 48.342.102-24.02 41.819M168.297 41.773l-24.26 41.814-24.205-41.711m119.936 207.727-24.082-41.917 48.226-.107"/></g>
          </g>
<g transform="translate(2805, 1611) scale(1 1) rotate(90 145 125)">
            <g ><path d="M.037 249.12 144.037 0l.293.212L288.075 249.48l-.33.148L0 249.48"/><path d="M143.872 249.554 72.39 207.686l-.352-83.126"/><path d="m72.037 124.56 72-40.973 72.166 41.26"/><path d="m216.203 124.846-.517 82.84-71.814 41.868M0 249.48l72.389-41.794M144.037 0v83.587M288.075 249.48l-72.389-41.794"/></g>
          </g>
<g transform="translate(2870, 1719) scale(1 1) rotate(30 145 125)">
            <path d="M.037 249.12 144.037 0l.293.212L288.075 249.48l-.33.148L0 249.48" />
          </g>
<g transform="translate(2743, 2157) scale(1 1) rotate(330 145 125)">
            
          </g>
<g transform="translate(2870, 2375) scale(1 1) rotate(150 145 125)">
            <path d="M.037 249.12 144.037 0l.293.212L288.075 249.48l-.33.148L0 249.48" />
          </g>
<g transform="translate(2805, 2487) scale(1 1) rotate(90 145 125)">
            <g ><path d="M.037 249.12 144.037 0l.293.212L288.075 249.48l-.33.148L0 249.48"/><path d="M143.872 249.554 72.39 207.686l-.352-83.126"/><path d="m72.037 124.56 72-40.973 72.166 41.26"/><path d="m216.203 124.846-.517 82.84-71.814 41.868M0 249.48l72.389-41.794M144.037 0v83.587M288.075 249.48l-72.389-41.794"/></g>
          </g>
<g transform="translate(2870, 2595) scale(1 1) rotate(30 145 125)">
            
          </g>
<g transform="translate(2742, 2810) scale(1 1) rotate(210 145 125)">
            <path d="M.037 249.12 144.037 0l.293.212L288.075 249.48l-.33.148L0 249.48" />
          </g>
<g transform="translate(2807, 2922) scale(1 1) rotate(270 145 125)">
            
          </g>
<g transform="translate(3060, 1173) scale(1 1) rotate(90 145 125)">
            
          </g>
<g transform="translate(3125, 1281) scale(1 1) rotate(30 145 125)">
            <g ><path d="M.037 249.12 144.037 0l.293.212L288.075 249.48l-.33.148L0 249.48"/><path d="M162.874 177.196H125.2l-52.811 30.49m52.811-30.49 18.837-32.627V83.587m0 60.982 18.837 32.627 52.812 30.49"/><path d="m28.367 200.384 56.262.102-28.676 49.023M172.372 49.114l-28.22 48.673-28.116-49.345m115.337 201.02-28.042-48.776 56.792.323"/><path d="m24.047 207.584 48.342.102-24.02 41.819M168.297 41.773l-24.26 41.814-24.205-41.711m119.936 207.727-24.082-41.917 48.226-.107"/></g>
          </g>
<g transform="translate(2997, 1496) scale(1 1) rotate(210 145 125)">
            <g ><path d="M.037 249.12 144.037 0l.293.212L288.075 249.48l-.33.148L0 249.48"/><path d="M143.872 249.554 72.39 207.686l-.352-83.126"/><path d="m72.037 124.56 72-40.973 72.166 41.26"/><path d="m216.203 124.846-.517 82.84-71.814 41.868M0 249.48l72.389-41.794M144.037 0v83.587M288.075 249.48l-72.389-41.794"/></g>
          </g>
<g transform="translate(3062, 1608) scale(1 1) rotate(270 145 125)">
            <g ><path d="M.037 249.12 144.037 0l.293.212L288.075 249.48l-.33.148L0 249.48"/><path d="M144.037 0C144.523 118.69 92.978 199.664 0 249.48"/><path d="M288.075 249.48C185.043 190.555 140.69 105.43 144.037 0"/><path d="M0 249.48c102.546-59.766 198.444-55.614 288.075 0"/><path d="M144.037 0C118.114 104.604 69.585 187.263 0 249.48m288.075 0C210.447 174.728 163.127 91.371 144.037 0M0 249.48c103.551-29.852 199.4-29.154 288.075 0"/></g>
          </g>
<g transform="translate(2998, 1719) scale(1 1) rotate(330 145 125)">
            <g ><path d="M.037 249.12 144.037 0l.293.212L288.075 249.48l-.33.148L0 249.48"/><path d="M162.874 177.196H125.2l-52.811 30.49m52.811-30.49 18.837-32.627V83.587m0 60.982 18.837 32.627 52.812 30.49"/><path d="m28.367 200.384 56.262.102-28.676 49.023M172.372 49.114l-28.22 48.673-28.116-49.345m115.337 201.02-28.042-48.776 56.792.323"/><path d="m24.047 207.584 48.342.102-24.02 41.819M168.297 41.773l-24.26 41.814-24.205-41.711m119.936 207.727-24.082-41.917 48.226-.107"/></g>
          </g>
<g transform="translate(3125, 1937) scale(1 1) rotate(150 145 125)">
            
          </g>
<g transform="translate(3060, 2049) scale(1 1) rotate(90 145 125)">
            
          </g>
<g transform="translate(3125, 2157) scale(1 1) rotate(30 145 125)">
            <g ><path d="M.037 249.12 144.037 0l.293.212L288.075 249.48l-.33.148L0 249.48"/><path d="M162.874 177.196H125.2l-52.811 30.49m52.811-30.49 18.837-32.627V83.587m0 60.982 18.837 32.627 52.812 30.49"/><path d="m28.367 200.384 56.262.102-28.676 49.023M172.372 49.114l-28.22 48.673-28.116-49.345m115.337 201.02-28.042-48.776 56.792.323"/><path d="m24.047 207.584 48.342.102-24.02 41.819M168.297 41.773l-24.26 41.814-24.205-41.711m119.936 207.727-24.082-41.917 48.226-.107"/></g>
          </g>
<g transform="translate(2997, 2372) scale(1 1) rotate(210 145 125)">
            <g ><path d="M.037 249.12 144.037 0l.293.212L288.075 249.48l-.33.148L0 249.48"/><path d="M162.874 177.196H125.2l-52.811 30.49m52.811-30.49 18.837-32.627V83.587m0 60.982 18.837 32.627 52.812 30.49"/><path d="m28.367 200.384 56.262.102-28.676 49.023M172.372 49.114l-28.22 48.673-28.116-49.345m115.337 201.02-28.042-48.776 56.792.323"/><path d="m24.047 207.584 48.342.102-24.02 41.819M168.297 41.773l-24.26 41.814-24.205-41.711m119.936 207.727-24.082-41.917 48.226-.107"/></g>
          </g>
<g transform="translate(3062, 2484) scale(1 1) rotate(270 145 125)">
            <path d="M.037 249.12 144.037 0l.293.212L288.075 249.48l-.33.148L0 249.48" />
          </g>
<g transform="translate(2998, 2595) scale(1 1) rotate(330 145 125)">
            <path d="M.037 249.12 144.037 0l.293.212L288.075 249.48l-.33.148L0 249.48" />
          </g>
<g transform="translate(3125, 2813) scale(1 1) rotate(150 145 125)">
            <path d="M.037 249.12 144.037 0l.293.212L288.075 249.48l-.33.148L0 249.48" />
          </g>
<g transform="translate(3060, 2925) scale(1 1) rotate(90 145 125)">
            
          </g>
<g transform="translate(3252, 1058) scale(1 1) rotate(210 145 125)">
            
          </g>
<g transform="translate(3317, 1170) scale(1 1) rotate(270 145 125)">
            <path d="M.037 249.12 144.037 0l.293.212L288.075 249.48l-.33.148L0 249.48" />
          </g>
<g transform="translate(3253, 1281) scale(1 1) rotate(330 145 125)">
            <path d="M.037 249.12 144.037 0l.293.212L288.075 249.48l-.33.148L0 249.48" />
          </g>
<g transform="translate(3380, 1499) scale(1 1) rotate(150 145 125)">
            <path d="M.037 249.12 144.037 0l.293.212L288.075 249.48l-.33.148L0 249.48" />
          </g>
<g transform="translate(3315, 1611) scale(1 1) rotate(90 145 125)">
            
          </g>
<g transform="translate(3380, 1719) scale(1 1) rotate(30 145 125)">
            <g ><path d="M.037 249.12 144.037 0l.293.212L288.075 249.48l-.33.148L0 249.48"/><path d="M143.872 249.554 72.39 207.686l-.352-83.126"/><path d="m72.037 124.56 72-40.973 72.166 41.26"/><path d="m216.203 124.846-.517 82.84-71.814 41.868M0 249.48l72.389-41.794M144.037 0v83.587M288.075 249.48l-72.389-41.794"/></g>
          </g>
<g transform="translate(3252, 1934) scale(1 1) rotate(210 145 125)">
            <g ><path d="M.037 249.12 144.037 0l.293.212L288.075 249.48l-.33.148L0 249.48"/><path d="M144.037 0C144.523 118.69 92.978 199.664 0 249.48"/><path d="M288.075 249.48C185.043 190.555 140.69 105.43 144.037 0"/><path d="M0 249.48c102.546-59.766 198.444-55.614 288.075 0"/><path d="M144.037 0C118.114 104.604 69.585 187.263 0 249.48m288.075 0C210.447 174.728 163.127 91.371 144.037 0M0 249.48c103.551-29.852 199.4-29.154 288.075 0"/></g>
          </g>
<g transform="translate(3317, 2046) scale(1 1) rotate(270 145 125)">
            <path d="M.037 249.12 144.037 0l.293.212L288.075 249.48l-.33.148L0 249.48m169.162-100.29L144.33.213m1.98 196.43 141.434 52.985M116.64 153.126.038 249.12m116.602-95.994L144.33.212m24.832 148.978 118.582 100.438M146.31 196.643.036 249.12m191.648-114.99L144.33.212m3.761 223.466 139.653 25.95M92.337 141.152.037 249.12m92.3-107.968L144.33.212m47.354 133.918 96.06 115.498m-139.653-25.95L.037 249.12m144-82.8L144.33.212m-.293 166.108 143.707 83.308M144.037 166.32l-144 82.8" />
          </g>
<g transform="translate(3253, 2157) scale(1 1) rotate(330 145 125)">
            <path d="M.037 249.12 144.037 0l.293.212L288.075 249.48l-.33.148L0 249.48m78.472-45.355 65.565-37.805m.043-75.684-.043 75.684m65.523 37.879-65.523-37.879M91.666 90.603l104.828.067m39.302 68.153-52.472 90.751m-78.674-.04-52.356-90.818M99.99 76.203l88.2.067m55.915 96.962-44.159 76.35m-111.928-.057-44.043-76.418" />
          </g>
<g transform="translate(3380, 2375) scale(1 1) rotate(150 145 125)">
            <g ><path d="M.037 249.12 144.037 0l.293.212L288.075 249.48l-.33.148L0 249.48"/><path d="M162.874 177.196H125.2l-52.811 30.49m52.811-30.49 18.837-32.627V83.587m0 60.982 18.837 32.627 52.812 30.49"/><path d="m28.367 200.384 56.262.102-28.676 49.023M172.372 49.114l-28.22 48.673-28.116-49.345m115.337 201.02-28.042-48.776 56.792.323"/><path d="m24.047 207.584 48.342.102-24.02 41.819M168.297 41.773l-24.26 41.814-24.205-41.711m119.936 207.727-24.082-41.917 48.226-.107"/></g>
          </g>
<g transform="translate(3315, 2487) scale(1 1) rotate(90 145 125)">
            <g ><path d="M.037 249.12 144.037 0l.293.212L288.075 249.48l-.33.148L0 249.48"/><path d="M143.872 249.554 72.39 207.686l-.352-83.126"/><path d="m72.037 124.56 72-40.973 72.166 41.26"/><path d="m216.203 124.846-.517 82.84-71.814 41.868M0 249.48l72.389-41.794M144.037 0v83.587M288.075 249.48l-72.389-41.794"/></g>
          </g>
<g transform="translate(3380, 2595) scale(1 1) rotate(30 145 125)">
            <path d="M.037 249.12 144.037 0l.293.212L288.075 249.48l-.33.148L0 249.48" />
          </g>
<g transform="translate(3252, 2810) scale(1 1) rotate(210 145 125)">
            <path d="M.037 249.12 144.037 0l.293.212L288.075 249.48l-.33.148L0 249.48" />
          </g>
<g transform="translate(3317, 2922) scale(1 1) rotate(270 145 125)">
            
          </g>
<g transform="translate(3635, 1061) scale(1 1) rotate(150 145 125)">
            
          </g>
<g transform="translate(3570, 1173) scale(1 1) rotate(90 145 125)">
            <path d="M.037 249.12 144.037 0l.293.212L288.075 249.48l-.33.148L0 249.48" />
          </g>
<g transform="translate(3635, 1281) scale(1 1) rotate(30 145 125)">
            <path d="M.037 249.12 144.037 0l.293.212L288.075 249.48l-.33.148L0 249.48" />
          </g>
<g transform="translate(3507, 1496) scale(1 1) rotate(210 145 125)">
            <g ><path d="M.037 249.12 144.037 0l.293.212L288.075 249.48l-.33.148L0 249.48"/><path d="M143.872 249.554 72.39 207.686l-.352-83.126"/><path d="m72.037 124.56 72-40.973 72.166 41.26"/><path d="m216.203 124.846-.517 82.84-71.814 41.868M0 249.48l72.389-41.794M144.037 0v83.587M288.075 249.48l-72.389-41.794"/></g>
          </g>
<g transform="translate(3572, 1608) scale(1 1) rotate(270 145 125)">
            <path d="M.037 249.12 144.037 0l.293.212L288.075 249.48l-.33.148L0 249.48m78.472-45.355 65.565-37.805m.043-75.684-.043 75.684m65.523 37.879-65.523-37.879M91.666 90.603l104.828.067m39.302 68.153-52.472 90.751m-78.674-.04-52.356-90.818M99.99 76.203l88.2.067m55.915 96.962-44.159 76.35m-111.928-.057-44.043-76.418" />
          </g>
<g transform="translate(3508, 1719) scale(1 1) rotate(330 145 125)">
            <path d="M.037 249.12 144.037 0l.293.212L288.075 249.48l-.33.148L0 249.48" />
          </g>
<g transform="translate(3635, 1937) scale(1 1) rotate(150 145 125)">
            
          </g>
<g transform="translate(3570, 2049) scale(1 1) rotate(90 145 125)">
            <path d="M.037 249.12 144.037 0l.293.212L288.075 249.48l-.33.148L0 249.48" />
          </g>
<g transform="translate(3635, 2157) scale(1 1) rotate(30 145 125)">
            <g ><path d="M.037 249.12 144.037 0l.293.212L288.075 249.48l-.33.148L0 249.48"/><path d="M144.037 0C144.523 118.69 92.978 199.664 0 249.48"/><path d="M288.075 249.48C185.043 190.555 140.69 105.43 144.037 0"/><path d="M0 249.48c102.546-59.766 198.444-55.614 288.075 0"/><path d="M144.037 0C118.114 104.604 69.585 187.263 0 249.48m288.075 0C210.447 174.728 163.127 91.371 144.037 0M0 249.48c103.551-29.852 199.4-29.154 288.075 0"/></g>
          </g>
<g transform="translate(3507, 2372) scale(1 1) rotate(210 145 125)">
            <path d="M.037 249.12 144.037 0l.293.212L288.075 249.48l-.33.148L0 249.48m78.472-45.355 65.565-37.805m.043-75.684-.043 75.684m65.523 37.879-65.523-37.879M91.666 90.603l104.828.067m39.302 68.153-52.472 90.751m-78.674-.04-52.356-90.818M99.99 76.203l88.2.067m55.915 96.962-44.159 76.35m-111.928-.057-44.043-76.418" />
          </g>
<g transform="translate(3572, 2484) scale(1 1) rotate(270 145 125)">
            <path d="M.037 249.12 144.037 0l.293.212L288.075 249.48l-.33.148L0 249.48" />
          </g>
<g transform="translate(3508, 2595) scale(1 1) rotate(330 145 125)">
            
          </g>
<g transform="translate(3635, 2813) scale(1 1) rotate(150 145 125)">
            
          </g>
<g transform="translate(3570, 2925) scale(1 1) rotate(90 145 125)">
            
          </g>
<g transform="translate(3890, 843) scale(1 1) rotate(30 145 125)">
            
          </g>
<g transform="translate(3762, 1058) scale(1 1) rotate(210 145 125)">
            <path d="M.037 249.12 144.037 0l.293.212L288.075 249.48l-.33.148L0 249.48" />
          </g>
<g transform="translate(3827, 1170) scale(1 1) rotate(270 145 125)">
            
          </g>
<g transform="translate(3763, 1281) scale(1 1) rotate(330 145 125)">
            <path d="M.037 249.12 144.037 0l.293.212L288.075 249.48l-.33.148L0 249.48" />
          </g>
<g transform="translate(3890, 1499) scale(1 1) rotate(150 145 125)">
            <g ><path d="M.037 249.12 144.037 0l.293.212L288.075 249.48l-.33.148L0 249.48"/><path d="M143.872 249.554 72.39 207.686l-.352-83.126"/><path d="m72.037 124.56 72-40.973 72.166 41.26"/><path d="m216.203 124.846-.517 82.84-71.814 41.868M0 249.48l72.389-41.794M144.037 0v83.587M288.075 249.48l-72.389-41.794"/></g>
          </g>
<g transform="translate(3825, 1611) scale(1 1) rotate(90 145 125)">
            <g ><path d="M.037 249.12 144.037 0l.293.212L288.075 249.48l-.33.148L0 249.48"/><path d="M143.872 249.554 72.39 207.686l-.352-83.126"/><path d="m72.037 124.56 72-40.973 72.166 41.26"/><path d="m216.203 124.846-.517 82.84-71.814 41.868M0 249.48l72.389-41.794M144.037 0v83.587M288.075 249.48l-72.389-41.794"/></g>
          </g>
<g transform="translate(3890, 1719) scale(1 1) rotate(30 145 125)">
            <g ><path d="M.037 249.12 144.037 0l.293.212L288.075 249.48l-.33.148L0 249.48"/><path d="M143.872 249.554 72.39 207.686l-.352-83.126"/><path d="m72.037 124.56 72-40.973 72.166 41.26"/><path d="m216.203 124.846-.517 82.84-71.814 41.868M0 249.48l72.389-41.794M144.037 0v83.587M288.075 249.48l-72.389-41.794"/></g>
          </g>
<g transform="translate(3762, 1934) scale(1 1) rotate(210 145 125)">
            <g ><path d="M.037 249.12 144.037 0l.293.212L288.075 249.48l-.33.148L0 249.48"/><path d="M143.872 249.554 72.39 207.686l-.352-83.126"/><path d="m72.037 124.56 72-40.973 72.166 41.26"/><path d="m216.203 124.846-.517 82.84-71.814 41.868M0 249.48l72.389-41.794M144.037 0v83.587M288.075 249.48l-72.389-41.794"/></g>
          </g>
<g transform="translate(3827, 2046) scale(1 1) rotate(270 145 125)">
            <g ><path d="M.037 249.12 144.037 0l.293.212L288.075 249.48l-.33.148L0 249.48"/><path d="M143.872 249.554 72.39 207.686l-.352-83.126"/><path d="m72.037 124.56 72-40.973 72.166 41.26"/><path d="m216.203 124.846-.517 82.84-71.814 41.868M0 249.48l72.389-41.794M144.037 0v83.587M288.075 249.48l-72.389-41.794"/></g>
          </g>
<g transform="translate(3763, 2157) scale(1 1) rotate(330 145 125)">
            <path d="M.037 249.12 144.037 0l.293.212L288.075 249.48l-.33.148L0 249.48" />
          </g>
<g transform="translate(3890, 2375) scale(1 1) rotate(150 145 125)">
            <g ><path d="M.037 249.12 144.037 0l.293.212L288.075 249.48l-.33.148L0 249.48"/><path d="M143.872 249.554 72.39 207.686l-.352-83.126"/><path d="m72.037 124.56 72-40.973 72.166 41.26"/><path d="m216.203 124.846-.517 82.84-71.814 41.868M0 249.48l72.389-41.794M144.037 0v83.587M288.075 249.48l-72.389-41.794"/></g>
          </g>
<g transform="translate(3825, 2487) scale(1 1) rotate(90 145 125)">
            <g ><path d="M.037 249.12 144.037 0l.293.212L288.075 249.48l-.33.148L0 249.48"/><path d="M143.872 249.554 72.39 207.686l-.352-83.126"/><path d="m72.037 124.56 72-40.973 72.166 41.26"/><path d="m216.203 124.846-.517 82.84-71.814 41.868M0 249.48l72.389-41.794M144.037 0v83.587M288.075 249.48l-72.389-41.794"/></g>
          </g>
<g transform="translate(3890, 2595) scale(1 1) rotate(30 145 125)">
            
          </g>
<g transform="translate(3762, 2810) scale(1 1) rotate(210 145 125)">
            
          </g>
<g transform="translate(3827, 2922) scale(1 1) rotate(270 145 125)">
            
          </g>
</svg>